<svg width="640" height="480" xmlns="http://www.w3.org/2000/svg" xmlns:svg="http://www.w3.org/2000/svg">
 <!-- Created with SVG-edit - http://svg-edit.googlecode.com/ -->
 <g>
  <title>Layer 1</title>
  <path d="m402,129c-8.16666,-4.83333 -9.4751,-5.51367 -10.90268,-6.21867c-1.51422,-0.74778 -3.10763,-1.50685 -4.76398,-2.26049c-1.68762,-0.7679 -3.39703,-1.5223 -5.12402,-2.2155c-3.35907,-1.34829 -4.99606,-1.89454 -6.58398,-2.39067c-1.53849,-0.48069 -3.05191,-0.89416 -4.542,-1.24801c-1.46215,-0.34721 -2.91458,-0.6448 -4.362,-0.888c-2.88174,-0.48419 -4.3413,-0.64449 -5.80267,-0.80666c-1.46136,-0.16217 -2.92209,-0.29643 -4.37701,-0.4095c-1.44382,-0.11221 -2.87424,-0.20429 -4.28699,-0.2745c-2.75394,-0.13685 -4.09091,-0.17035 -5.40534,-0.20267c-1.30023,-0.03196 -2.59463,-0.05187 -3.89099,-0.06449c-1.3063,-0.01273 -2.63067,-0.0176 -3.98101,-0.0195c-2.81067,-0.00396 -4.28516,-0.00134 -5.80668,-0.00134c-1.56549,0 -3.17199,0 -4.81649,0c-1.67951,0 -3.39099,0 -5.1315,0c-3.556,0 -5.36719,-0.00402 -7.20533,0.00667c-1.87219,0.01089 -3.78567,0.03521 -5.74649,0.09749c-2.01658,0.06406 -4.09619,0.15587 -6.24151,0.32251c-4.53389,0.35217 -6.92313,0.66379 -9.38134,1.00133c-2.51097,0.34478 -5.04675,0.7468 -7.58549,1.197c-2.52936,0.44854 -5.02263,0.92863 -7.4505,1.467c-4.62325,1.0252 -6.75758,1.61234 -8.77867,2.19067c-1.92047,0.54954 -3.73084,1.11949 -5.4375,1.69649c-1.61989,0.54766 -3.14554,1.10078 -4.58249,1.65151c-2.65396,1.01716 -3.86649,1.52295 -5.03067,2.00667c-1.13377,0.47107 -2.25003,0.95006 -3.366,1.44599c-1.14009,0.50665 -2.31645,1.04548 -3.546,1.62601c-2.70942,1.27923 -4.20681,2.01565 -5.79334,2.79733c-1.65387,0.81485 -3.34787,1.6617 -5.0565,2.535c-1.70871,0.87335 -3.39113,1.74402 -5.01149,2.625c-3.02223,1.64317 -4.35874,2.43627 -5.588,3.196c-1.15106,0.71141 -2.21788,1.41501 -3.21301,2.1165c-0.95937,0.67629 -1.87625,1.36472 -2.763,2.07149c-1.79421,1.43005 -2.69062,2.21023 -3.612,3.00267c-0.93701,0.80586 -1.87567,1.63069 -2.8125,2.4675c-0.93653,0.83653 -1.8615,1.67489 -2.7675,2.51251c-1.75951,1.62666 -2.59214,2.42378 -3.41199,3.20932c-0.82082,0.78647 -1.65096,1.59172 -2.50801,2.42401c-0.89763,0.87169 -1.84734,1.79737 -2.868,2.784c-2.29567,2.2191 -3.59834,3.46271 -4.98266,4.78267c-1.43863,1.37173 -2.90769,2.76701 -4.3785,4.16249c-1.44519,1.37117 -2.83929,2.69136 -4.1535,3.9375c-2.28449,2.16615 -3.21117,3.04256 -3.99468,3.80134c-0.6757,0.65438 -1.26194,1.23581 -1.76849,1.782c-0.47575,0.51299 -0.92439,1.03777 -1.36349,1.60199c-1.01101,1.29909 -1.57627,2.11441 -2.21201,3.00934c-0.68382,0.9626 -1.39281,1.98029 -2.112,3.0345c-0.72617,1.06445 -1.43993,2.1241 -2.112,3.16949c-1.23724,1.92455 -1.74477,2.79197 -2.192,3.58535c-0.40682,0.72171 -0.7588,1.39258 -1.071,2.01599c-0.29018,0.57944 -0.54876,1.13159 -0.801,1.656c-0.48699,1.01244 -0.743,1.51191 -1.008,2.01067c-0.26633,0.50125 -0.54133,1 -0.816,1.5c-0.27467,0.5 -0.55125,0.99791 -0.816,1.5c-0.52515,0.99593 -0.76701,1.49883 -1,2.00667c-0.23574,0.51384 -0.46288,1.04495 -0.684,1.5975c-0.22973,0.57408 -0.45776,1.17984 -0.684,1.8225c-0.49382,1.40278 -0.73867,2.17941 -1,2.992c-0.27005,0.83972 -0.5406,1.69756 -0.816,2.5605c-0.27394,0.85838 -0.54218,1.70204 -0.816,2.51549c-0.50781,1.50857 -0.75994,2.1779 -0.99733,2.79867c-0.22276,0.58252 -0.44274,1.13228 -0.64501,1.665c-0.19768,0.52066 -0.39141,1.03972 -0.555,1.57501c-0.34417,1.12622 -0.47229,1.75085 -0.59999,2.40532c-0.1326,0.67957 -0.24555,1.38321 -0.34501,2.10301c-0.10062,0.72824 -0.18681,1.46132 -0.25499,2.19299c-0.13334,1.43084 -0.16882,2.12215 -0.20134,2.79467c-0.03172,0.65617 -0.05175,1.29861 -0.06449,1.929c-0.01255,0.6203 -0.01758,1.23266 -0.0195,1.839c-0.00381,1.20267 -0.00134,1.80284 -0.00134,2.40401c0,0.60316 0,1.20932 0,1.81949c0,0.61517 0,1.23634 0,1.8645c0,1.28134 0,1.93567 0,2.59601c0,0.66232 0,1.32266 0,1.97699c0,0.64433 0,1.27467 0,1.88701c0,1.15466 0,1.69032 0,2.19999c0,0.48767 0,0.95734 0,1.413c0,0.44568 0,0.88534 0,1.323c0,0.88534 -0.00156,1.34085 0.00267,1.80934c0.00437,0.48453 0.01436,0.98819 0.03899,1.51349c0.02583,0.55075 0.06351,1.12991 0.12901,1.73852c0.14273,1.32627 0.26674,2.04364 0.39999,2.79331c0.13789,0.77572 0.29657,1.56637 0.471,2.36401c0.1749,0.79974 0.35994,1.59122 0.56101,2.36401c0.38326,1.47306 0.59227,2.15238 0.79999,2.79999c0.20113,0.62705 0.4143,1.2363 0.639,1.836c0.22595,0.603 0.46923,1.2121 0.72901,1.836c0.55532,1.33374 0.87044,2.05032 1.19999,2.80133c0.34171,0.77869 0.69817,1.57614 1.071,2.38351c0.37648,0.81528 0.75972,1.62946 1.16101,2.4285c0.78254,1.55817 1.19269,2.2887 1.596,2.99466c0.39249,0.68701 0.78914,1.34891 1.18049,1.9935c0.38335,0.63141 0.76662,1.24719 1.13551,1.85849c0.72447,1.20053 1.06695,1.80295 1.40266,2.40802c0.33731,0.60794 0.66915,1.22739 1.00351,1.85849c0.34166,0.6449 0.68795,1.30954 1.0485,1.9935c0.7618,1.44516 1.17183,2.20822 1.59732,2.992c0.43281,0.79725 0.87206,1.59671 1.3125,2.3895c0.43291,0.77921 0.85595,1.53436 1.26751,2.25449c0.74897,1.31051 1.08642,1.8825 1.40667,2.40667c0.30328,0.4964 0.60891,0.97367 0.92999,1.443c0.33212,0.48547 0.69882,0.99206 1.11,1.53302c0.96284,1.26672 1.55498,1.99905 2.20534,2.80667c0.70344,0.87353 1.46089,1.79858 2.268,2.76449c0.84076,1.0062 1.71541,2.03873 2.62799,3.0795c1.85868,2.11978 2.82271,3.15705 3.79067,4.18933c0.96771,1.03205 1.94813,2.05179 2.9355,3.06449c0.9873,1.01263 1.98242,2.01761 2.9805,3.0195c1.99618,2.00384 2.99818,3.00085 3.99467,3.99734c0.9905,0.99051 1.972,1.97199 2.9415,2.9415c0.9545,0.9545 1.89101,1.89099 2.8065,2.80649c1.756,1.75601 2.59098,2.59186 3.4,3.39868c0.78399,0.78186 1.54667,1.54001 2.2935,2.27399c0.7292,0.71664 1.44576,1.4161 2.15849,2.09402c1.39766,1.32938 2.10347,1.97141 2.81601,2.61466c0.72643,0.65579 1.48291,1.32525 2.2755,2.0205c0.83536,0.73279 1.72694,1.50705 2.6805,2.33548c2.13188,1.85218 3.32399,2.89011 4.59201,3.99201c1.32695,1.15313 2.69804,2.34225 4.10249,3.54751c1.41554,1.21479 2.82898,2.42221 4.2375,3.5925c2.68856,2.23383 3.96498,3.2432 5.18666,4.18534c1.16033,0.89483 2.28055,1.72592 3.36751,2.49298c1.04004,0.73394 2.05287,1.41919 3.05249,2.043c1.91025,1.19207 2.86772,1.70816 3.80667,2.20935c0.92119,0.4917 1.83799,0.95211 2.745,1.39349c0.89303,0.43457 1.77991,0.84921 2.655,1.25851c1.7198,0.80442 2.56512,1.20374 3.40133,1.60132c0.82814,0.39377 1.64786,0.78452 2.46451,1.16101c0.80872,0.37284 1.61202,0.73761 2.4195,1.07099c1.59306,0.65771 2.39842,0.93667 3.20266,1.19732c0.80021,0.25934 1.60682,0.48999 2.4195,0.69001c0.81277,0.20001 1.63368,0.37552 2.46451,0.51001c1.67656,0.27139 2.53682,0.33905 3.41066,0.40268c0.89656,0.06527 1.82518,0.10412 2.7915,0.12899c1.01103,0.02604 2.07433,0.03522 3.1965,0.039c2.44931,0.00824 3.78717,0.00266 5.192,0.00266c1.45884,0 2.95867,0 4.4865,0c1.54283,0 3.08766,0 4.62151,0c2.98266,0 4.40899,0.00177 5.79333,-0.00266c1.35034,-0.0043 2.67474,-0.01354 3.98099,-0.039c1.29646,-0.02527 2.59123,-0.06097 3.891,-0.12899c2.65201,-0.13883 4.02005,-0.26169 5.43601,-0.41068c1.48654,-0.15643 3.05954,-0.36182 4.7355,-0.62701c1.80564,-0.28574 3.75455,-0.63736 5.86051,-1.077c4.79535,-1.0011 7.4924,-1.67657 10.38266,-2.39465c3.05121,-0.75806 6.22302,-1.58014 9.48599,-2.44501c3.32645,-0.88168 6.6792,-1.78992 10.026,-2.715c6.56101,-1.81347 9.71176,-2.70959 12.77335,-3.59735c2.99035,-0.86709 5.91665,-1.73971 8.78399,-2.64599c2.8367,-0.89658 5.64698,-1.81977 8.42398,-2.82599c5.59888,-2.02869 8.38913,-3.20032 11.18134,-4.38935c2.77521,-1.18179 5.4834,-2.39755 8.103,-3.61798c2.52157,-1.17477 4.90365,-2.32208 7.113,-3.43802c3.86008,-1.94973 5.43799,-2.81604 6.79868,-3.59732c1.18671,-0.68136 2.20596,-1.3124 3.0675,-1.923c0.77082,-0.54626 1.44583,-1.08981 2.0325,-1.65302c1.14881,-1.10284 1.67426,-1.75192 2.22666,-2.41064c0.56619,-0.67517 1.12054,-1.3786 1.6575,-2.103c0.53644,-0.72369 1.05206,-1.45309 1.52249,-2.19302c0.89993,-1.41544 1.26355,-2.11777 1.60001,-2.79599c0.32495,-0.65503 0.61221,-1.30566 0.8775,-1.94849c0.26132,-0.63327 0.50183,-1.26895 0.74249,-1.9035c0.48694,-1.28387 0.74216,-1.93872 1.00135,-2.60535c0.26348,-0.6777 0.52941,-1.36694 0.777,-2.07449c0.25119,-0.7178 0.49408,-1.45111 0.68698,-2.2095c0.39469,-1.55173 0.50263,-2.36914 0.59867,-3.19599c0.0971,-0.83597 0.15552,-1.68231 0.19351,-2.53201c0.03796,-0.84903 0.05273,-1.69464 0.0585,-2.53201c0.01126,-1.63462 0.004,-2.42514 0.004,-3.19864c0,-0.75952 0,-1.50803 0,-2.24851c0,-0.7355 0,-1.46902 0,-2.20352c0,-1.48398 0,-2.23849 0,-3c0,-0.7655 0,-1.53198 0,-2.29648c0,-0.75952 0,-1.51101 0,-2.25149c0,-1.43601 0.00085,-2.12653 -0.00134,-2.80002c-0.00217,-0.65949 -0.00678,-1.30801 -0.0195,-1.94849c-0.01264,-0.63556 -0.03034,-1.26931 -0.06449,-1.9035c-0.06918,-1.2847 -0.13324,-1.93878 -0.19867,-2.60001c-0.06588,-0.66577 -0.14105,-1.33203 -0.216,-1.99649c-0.0744,-0.65954 -0.15121,-1.3106 -0.216,-1.9515c-0.12485,-1.23526 -0.16465,-1.82706 -0.20133,-2.40534c-0.03628,-0.57205 -0.06601,-1.14545 -0.10351,-1.7265c-0.03849,-0.59628 -0.08118,-1.21509 -0.1485,-1.86151c-0.14697,-1.41123 -0.26837,-2.1835 -0.40134,-2.996c-0.13815,-0.84424 -0.29651,-1.70761 -0.47098,-2.57999c-0.17486,-0.8743 -0.35907,-1.73862 -0.561,-2.57999c-0.38175,-1.59048 -0.59216,-2.31384 -0.79602,-2.992c-0.19211,-0.6391 -0.38825,-1.23816 -0.58048,-1.80301c-0.18255,-0.53647 -0.36541,-1.04471 -0.53552,-1.53299c-0.32196,-0.92422 -0.46637,-1.36972 -0.59997,-1.80667c-0.13068,-0.4274 -0.25107,-0.84888 -0.36451,-1.2645c-0.11184,-0.40973 -0.21722,-0.81613 -0.31952,-1.21951c-0.20309,-0.80087 -0.2998,-1.20181 -0.40399,-1.60132c-0.10446,-0.40051 -0.21411,-0.80142 -0.33899,-1.20001c-0.12576,-0.40146 -0.26211,-0.80426 -0.42901,-1.20001c-0.34131,-0.80933 -0.56699,-1.20297 -0.79868,-1.59998c-0.23526,-0.4031 -0.49023,-0.80115 -0.75149,-1.20001c-0.26276,-0.40114 -0.5336,-0.79826 -0.79648,-1.2c-0.52127,-0.7966 -0.76386,-1.19894 -1,-1.60267c-0.23685,-0.40496 -0.46826,-0.81853 -0.70352,-1.239c-0.24073,-0.43019 -0.48606,-0.87435 -0.74851,-1.329c-0.5578,-0.96626 -0.8703,-1.47364 -1.19998,-1.99466c-0.33728,-0.53306 -0.68796,-1.06678 -1.05151,-1.593c-0.36051,-0.5218 -0.72199,-1.02897 -1.0965,-1.503c-0.69946,-0.88533 -1.05545,-1.25847 -1.39734,-1.59867c-0.32284,-0.32126 -0.64661,-0.60988 -0.96448,-0.8775c-0.30758,-0.25896 -0.61743,-0.50027 -0.91952,-0.74249c-0.60355,-0.48392 -0.90329,-0.73928 -1.20133,-1.00534c-0.302,-0.2696 -0.60125,-0.54937 -0.89999,-0.8355c-0.30124,-0.28853 -0.60062,-0.58305 -0.89999,-0.88051c-0.60126,-0.59741 -0.89985,-0.8985 -1.19867,-1.19732c-0.29685,-0.29683 -0.59067,-0.59069 -0.8805,-0.88051c-0.28485,-0.28484 -0.56369,-0.56366 -0.83551,-0.8355c-0.51867,-0.51867 -0.76452,-0.76364 -1.00134,-1.00267c-0.23184,-0.23399 -0.4599,-0.46681 -0.68399,-0.70349c-0.22659,-0.23932 -0.45529,-0.48668 -0.68399,-0.7485c-0.48834,-0.5591 -0.7384,-0.87247 -1,-1.19867c-0.26981,-0.33644 -0.54135,-0.68267 -0.81601,-1.032c-0.27466,-0.34933 -0.54544,-0.6962 -0.81601,-1.032c-0.51373,-0.63759 -0.76031,-0.92706 -1,-1.19734c-0.22909,-0.25833 -0.45612,-0.50117 -0.68399,-0.72899c-0.22287,-0.22282 -0.44928,-0.43654 -0.68399,-0.63901c-0.47595,-0.41058 -0.73654,-0.60409 -1.00134,-0.804c-0.27085,-0.20446 -0.55097,-0.4089 -0.83551,-0.61949c-0.29013,-0.21474 -0.58615,-0.4331 -0.8805,-0.6645c-0.60388,-0.47477 -0.90078,-0.73467 -1.20266,-1.00267c-0.31119,-0.27629 -0.62827,-0.56903 -0.9585,-0.8745c-0.34579,-0.31984 -0.70743,-0.65807 -1.09351,-1.00951c-0.84054,-0.76512 -1.30755,-1.17129 -1.79599,-1.59732c-0.50558,-0.44099 -1.02526,-0.89061 -1.548,-1.3515c-0.52524,-0.46309 -1.04724,-0.92535 -1.548,-1.3965c-0.96219,-0.90527 -1.39103,-1.35754 -1.79599,-1.79468c-0.38791,-0.4187 -0.74857,-0.83018 -1.09351,-1.22549c-0.33102,-0.37938 -0.64401,-0.74818 -0.9585,-1.0905c-0.59469,-0.64734 -0.90017,-0.93362 -1.20532,-1.20267c-0.29935,-0.26393 -0.60721,-0.51077 -0.91952,-0.7485c-0.31305,-0.2383 -0.63599,-0.46945 -0.96448,-0.70349c-0.68067,-0.48496 -1.03699,-0.73813 -1.40134,-1.004c-0.37564,-0.27411 -0.76059,-0.55924 -1.155,-0.85501c-0.40561,-0.30419 -0.82083,-0.61893 -1.24499,-0.94499c-0.88172,-0.6778 -1.33417,-1.03417 -1.79334,-1.39334c-0.45916,-0.35917 -0.9125,-0.71444 -1.35751,-1.0575c-0.42834,-0.33023 -0.83493,-0.64301 -1.2225,-0.9225c-0.66758,-0.48143 -0.95163,-0.65866 -1.19999,-0.80133c-0.21371,-0.12277 -0.40606,-0.2173 -0.57751,-0.297c-0.15527,-0.07217 -0.30432,-0.1328 -0.4425,-0.207c-0.29273,-0.1572 -0.44352,-0.27528 -0.60666,-0.40533c-0.17707,-0.14113 -0.36032,-0.301 -0.555,-0.47101c-0.20532,-0.17931 -0.41815,-0.36949 -0.64502,-0.56099c-0.47613,-0.40193 -0.73294,-0.5997 -0.99865,-0.79601c-0.26993,-0.19943 -0.54877,-0.39355 -0.83551,-0.5805c-0.28797,-0.18775 -0.58063,-0.36897 -0.8805,-0.53549c-0.59289,-0.32927 -0.89755,-0.46689 -1.19998,-0.60134c-0.30191,-0.13421 -0.60901,-0.25952 -0.91952,-0.384c-0.31482,-0.12621 -0.63715,-0.25061 -0.96448,-0.384c-0.68311,-0.27838 -1.03662,-0.43598 -1.39868,-0.59999c-0.3693,-0.16729 -0.74134,-0.34134 -1.116,-0.51601c-0.37466,-0.17467 -0.74628,-0.34967 -1.116,-0.51601c-0.71533,-0.32183 -1.0617,-0.46496 -1.39999,-0.59866c-0.33038,-0.13057 -0.65787,-0.25157 -0.98401,-0.3645c-0.32458,-0.1124 -0.65192,-0.21883 -0.98401,-0.31949c-0.68112,-0.20647 -1.03668,-0.30235 -1.39734,-0.40001c-0.362,-0.09801 -0.72235,-0.19186 -1.07699,-0.2805c-0.34406,-0.086 -0.67411,-0.16605 -0.987,-0.23549c-0.55374,-0.12289 -0.79074,-0.16475 -1.004,-0.20267c-0.19708,-0.03503 -0.38568,-0.0661 -0.5715,-0.1035c-0.19156,-0.03856 -0.39551,-0.0847 -0.61649,-0.1485c-0.53241,-0.1537 -0.84985,-0.27237 -1.20935,-0.40268c-0.40057,-0.1452 -0.84,-0.31065 -1.31998,-0.49049c-0.52002,-0.19484 -1.07931,-0.40555 -1.68002,-0.6255c-1.31848,-0.48279 -2.03802,-0.73507 -2.78931,-0.99466c-0.77401,-0.26746 -1.5646,-0.53427 -2.36401,-0.79651c-0.79794,-0.26175 -1.58783,-0.51587 -2.36401,-0.7515c-1.46656,-0.4452 -2.14954,-0.63125 -2.80133,-0.79866c-0.62729,-0.1611 -1.24289,-0.30394 -1.8555,-0.429c-0.61542,-0.12562 -1.24601,-0.2388 -1.90049,-0.339c-1.41006,-0.2159 -2.18554,-0.3039 -3.00134,-0.40401c-0.84955,-0.10426 -1.72555,-0.20749 -2.61899,-0.31949c-0.90393,-0.11331 -1.81054,-0.22827 -2.70901,-0.3645c-1.75177,-0.26563 -2.58548,-0.43108 -3.39066,-0.59734c-0.77914,-0.16088 -1.52939,-0.33166 -2.25451,-0.4965c-0.70023,-0.15918 -1.37467,-0.31883 -2.02948,-0.45149c-1.23841,-0.25089 -1.83081,-0.33344 -2.40403,-0.39867c-0.5556,-0.06322 -1.09841,-0.10346 -1.62899,-0.129c-0.52011,-0.02504 -1.03263,-0.03515 -1.539,-0.039c-1.00263,-0.0076 -1.50232,-0.00182 -2,-0.004c-0.49366,-0.00216 -0.98139,-0.00668 -1.461,-0.0195c-0.46976,-0.01256 -0.92786,-0.02891 -1.37101,-0.0645c-0.83856,-0.06733 -1.22818,-0.13121 -1.59732,-0.19867c-0.35086,-0.06411 -0.68057,-0.13891 -0.98999,-0.216c-0.29058,-0.07239 -0.55975,-0.14827 -0.80999,-0.216c-0.43958,-0.11898 -0.62998,-0.16516 -0.80402,-0.19867c-0.15904,-0.03063 -0.30777,-0.05164 -0.4485,-0.0645c-0.13532,-0.01238 -0.26897,-0.0176 -0.40349,-0.0195c-0.28398,-0.00402 -0.43884,-0.00133 -0.60268,-0.00133c-0.17183,0 -0.35066,0 -0.53549,0c-0.18983,0 -0.38367,0 -0.5805,0c-0.39867,0 -0.59967,0 -0.80667,0c-0.219,0 -0.456,0 -0.717,0c-0.291,0 -0.618,0 -0.987,0c-0.888,0 -1.4165,0 -1.996,0c-0.62151,0 -1.276,0 -1.9545,0c-0.6935,0 -1.39301,0 -2.08949,0c-1.34801,0 -1.98352,-0.0018 -2.59201,0.00267c-0.58452,0.00429 -1.14823,0.01324 -1.6935,0.039c-0.53078,0.02507 -1.05058,0.05982 -1.5585,0.129c-1.00778,0.13727 -1.50551,0.26512 -2.00133,0.39867c-0.49561,0.13348 -0.98262,0.28819 -1.461,0.45149c-0.47096,0.16076 -0.92766,0.33017 -1.371,0.4965c-0.83794,0.3144 -1.22803,0.46097 -1.60133,0.60001c-0.3597,0.13397 -0.70923,0.26495 -1.04851,0.40349c-0.33673,0.1375 -0.67259,0.28166 -1.0035,0.4485c-0.69186,0.34883 -1.04112,0.5703 -1.404,0.80133c-0.37725,0.24017 -0.76071,0.50029 -1.155,0.77101c-0.40575,0.27858 -0.81877,0.56909 -1.245,0.86099c-0.87751,0.60099 -1.33334,0.89924 -1.79733,1.196c-0.46735,0.29892 -0.94022,0.5925 -1.416,0.88051c-0.47357,0.28667 -0.94585,0.56624 -1.416,0.8355c-0.91446,0.52369 -1.36203,0.7655 -1.80133,1.00132c-0.43372,0.23284 -0.86748,0.45969 -1.3035,0.68401c-0.43999,0.22635 -0.88875,0.45317 -1.34851,0.68401c-0.96345,0.48373 -1.47374,0.73632 -1.99733,1.00132c-0.53476,0.27066 -1.07492,0.54767 -1.6125,0.8355c-0.53577,0.28686 -1.0633,0.57535 -1.56749,0.88051c-0.96306,0.58288 -1.39246,0.89323 -1.79601,1.196c-0.38499,0.28884 -0.7404,0.57925 -1.074,0.86099c-0.31699,0.2677 -0.6106,0.52974 -0.894,0.77101c-0.51892,0.44176 -0.76613,0.63057 -1.00532,0.80266c-0.22957,0.16516 -0.45868,0.31733 -0.68401,0.468c-0.22533,0.15067 -0.45555,0.3013 -0.68401,0.468c-0.48899,0.35681 -0.73942,0.57241 -1,0.80133c-0.27087,0.23799 -0.54257,0.4907 -0.81599,0.7515c-0.27594,0.2632 -0.54794,0.53038 -0.81599,0.79651c-0.51853,0.5148 -0.76319,0.76098 -1,1c-0.23185,0.23401 -0.45992,0.46681 -0.68401,0.70349c-0.22659,0.23932 -0.45531,0.48668 -0.68401,0.7485c-0.48834,0.55908 -0.73861,0.87349 -1.00532,1.204c-0.28201,0.34947 -0.57758,0.72088 -0.894,1.11c-0.33418,0.41095 -0.68876,0.84335 -1.074,1.29001c-0.83428,0.9673 -1.30522,1.47052 -1.79334,1.99466c-0.50152,0.53856 -1.016,1.08142 -1.5285,1.632c-0.51018,0.5481 -1.01305,1.0882 -1.48349,1.632c-0.88472,1.02269 -1.25771,1.52109 -1.60001,2c-0.32783,0.45867 -0.6271,0.91619 -0.9165,1.368c-0.28794,0.44954 -0.56944,0.90851 -0.87149,1.368c-0.63907,0.97216 -1.01001,1.47697 -1.40134,1.99867c-0.4026,0.53673 -0.82278,1.07429 -1.248,1.6125c-0.42279,0.53513 -0.84334,1.05727 -1.248,1.56749c-0.75452,0.95136 -1.09001,1.38741 -1.39734,1.8c-0.28989,0.3892 -0.55956,0.76511 -0.81299,1.13251c-0.24786,0.35933 -0.48749,0.72028 -0.72301,1.0875c-0.48983,0.76379 -0.74134,1.1755 -1.00267,1.604c-0.27006,0.44281 -0.54347,0.90009 -0.81599,1.371c-0.27686,0.47841 -0.55225,0.96469 -0.81599,1.461c-0.52723,0.99214 -0.76656,1.49579 -0.99868,2c-0.23224,0.50449 -0.4532,1.01709 -0.6645,1.539c-0.21408,0.52876 -0.42127,1.07088 -0.61949,1.629c-0.41165,1.15904 -0.6053,1.77116 -0.79868,2.40134c-0.19807,0.64547 -0.38774,1.30899 -0.56099,1.99049c-0.17622,0.69321 -0.34083,1.40112 -0.47101,2.1255c-0.26489,1.47399 -0.33583,2.23259 -0.39999,2.99601c-0.06456,0.76802 -0.10365,1.54113 -0.129,2.31599c-0.02533,0.77452 -0.03515,1.54732 -0.039,2.31599c-0.00758,1.51732 -0.00267,2.26217 -0.00267,2.99602c0,0.72183 0,1.43067 0,2.12549c0,0.67984 0,1.34366 0,1.99051c0,1.23865 0,1.82864 0,2.39865c0,0.55002 0,1.08002 0,1.59c0,0.49002 0,0.96002 0,1.41c0,0.84 0,1.23068 0,1.60535c0,0.36267 0,0.71731 0,1.06799c0,0.35068 0,0.70532 0,1.06799c0,0.76535 -0.00078,1.17502 0.00133,1.60266c0.00218,0.44367 0.00699,0.9014 0.0195,1.37101c0.01277,0.47973 0.03032,0.96771 0.0645,1.461c0.06918,0.99826 0.13093,1.49844 0.20266,2c0.07254,0.50717 0.16327,1.01992 0.27451,1.539c0.11395,0.5317 0.24727,1.07522 0.4095,1.62899c0.3423,1.16843 0.56567,1.77384 0.79866,2.39603c0.23824,0.63623 0.49622,1.27551 0.77101,1.91248c0.27455,0.63641 0.55861,1.2626 0.86099,1.86752c0.58074,1.16177 0.89193,1.69205 1.19735,2.19733c0.29478,0.48767 0.59645,0.95041 0.89999,1.39349c0.29655,0.43289 0.59819,0.85034 0.89999,1.25851c0.59642,0.80665 0.90003,1.20398 1.20002,1.60398c0.3,0.40002 0.59999,0.80002 0.89999,1.20001c0.3,0.39999 0.59999,0.79999 0.89999,1.20001c0.59998,0.80002 0.89907,1.20069 1.20134,1.59867c0.30205,0.39767 0.60659,0.79284 0.9195,1.18048c0.31245,0.38705 0.62977,0.76956 0.96451,1.13549c0.66842,0.73072 1.03231,1.06861 1.40266,1.40134c0.37401,0.33603 0.76648,0.66226 1.1745,0.98401c0.41728,0.32904 0.85405,0.65582 1.30949,0.98401c0.95658,0.6893 1.46975,1.03943 2,1.39999c0.54537,0.37082 1.10851,0.74469 1.69051,1.116c0.59265,0.37811 1.1993,0.75479 1.8255,1.116c1.27002,0.73257 1.93108,1.06769 2.59866,1.39868c0.67243,0.3334 1.35825,0.65323 2.05501,0.96448c0.70325,0.31414 1.41846,0.62002 2.14499,0.91952c1.47693,0.60886 2.23358,0.90338 2.996,1.19864c0.76458,0.29608 1.53067,0.58499 2.29651,0.86102c0.7582,0.27326 1.50833,0.53559 2.2515,0.771c1.43104,0.45331 2.12465,0.63425 2.79866,0.79868c0.65477,0.15972 1.29748,0.29577 1.929,0.40948c0.61923,0.11151 1.23164,0.20471 1.839,0.27451c1.20087,0.13797 1.80294,0.17062 2.40666,0.20266c0.6093,0.03232 1.22796,0.05194 1.85851,0.06449c0.64545,0.01284 1.30901,0.01761 1.9935,0.0195c1.444,0.004 2.20984,0.0021 3.01067,0c0.84083,-0.0022 1.7267,-0.00727 2.6625,-0.0195c0.99086,-0.01297 2.04178,-0.03186 3.1575,-0.06449c2.44696,-0.07156 3.78374,-0.13165 5.18132,-0.20266c1.4401,-0.07319 2.90328,-0.16126 4.36951,-0.27451c1.45247,-0.11218 2.8723,-0.23444 4.2345,-0.40948c2.50015,-0.32126 3.59546,-0.55277 4.58667,-0.79737c0.90773,-0.224 1.72874,-0.4787 2.4705,-0.75149c0.6861,-0.25232 1.31047,-0.52356 1.88548,-0.79648c1.05857,-0.50244 1.54245,-0.76032 2.01203,-0.99735c0.45041,-0.22735 0.88116,-0.44708 1.28998,-0.66449c0.39117,-0.208 0.76355,-0.4104 1.11001,-0.6195c0.64676,-0.39032 0.93299,-0.59943 1.21067,-0.80402c0.277,-0.2041 0.55349,-0.42017 0.846,-0.63898c0.31009,-0.23196 0.64615,-0.47943 1.026,-0.729c0.88047,-0.57849 1.41791,-0.87531 2.00132,-1.20132c0.62616,-0.34989 1.29495,-0.71018 1.9935,-1.09052c0.72415,-0.39429 1.46908,-0.79764 2.2185,-1.22549c1.5177,-0.86649 2.25763,-1.32871 2.98535,-1.792c0.71491,-0.45514 1.40387,-0.91153 2.06699,-1.35751c0.63553,-0.42743 1.23386,-0.83954 1.797,-1.2225c0.99322,-0.67545 1.41964,-0.95713 1.80801,-1.20267c0.35516,-0.22458 0.69223,-0.42719 1.01999,-0.61649c0.32559,-0.18805 0.6633,-0.37439 1.01999,-0.5715c0.81329,-0.44946 1.28729,-0.7124 1.80002,-1.00268c0.544,-0.30799 1.10772,-0.63147 1.67999,-0.9675c0.57443,-0.33728 1.6926,-0.99326 2.66666,-1.64582c0.81619,-0.54678 1.46988,-1.0328 1.944,-1.51202c0.76944,-0.77768 1.15222,-1.42172 1.51468,-2.09332c0.56585,-1.04847 0.87234,-1.69641 1.20001,-2.43201c0.36465,-0.81866 0.56582,-1.26315 1.00799,-2.79599c0.16147,-0.55978 0.41593,-1.76212 0.54132,-2.38666c0.12726,-0.63379 0.23487,-1.27667 0.50934,-2.54666c0.26731,-1.23675 0.43039,-1.82568 0.60001,-2.39603c0.32797,-1.10272 0.51749,-1.62851 0.86331,-2.66165c0.1694,-0.5061 0.63507,-2.00799 0.76868,-2.509c0.26611,-0.99805 0.37311,-1.50281 0.63666,-2.5c0.39761,-1.50443 0.5624,-2.00211 0.90002,-3c0.16952,-0.50107 0.52676,-1.49838 0.69464,-2c0.50037,-1.49527 0.64056,-1.99741 0.89551,-2.99551c0.12582,-0.49265 0.34698,-1.46839 0.55585,-2.41916c0.20178,-0.91858 0.39856,-1.80063 0.60131,-2.64933c0.19733,-0.82597 0.40354,-1.63378 0.69983,-2.83616c0.19806,-0.80376 0.38474,-1.6196 0.46418,-2.03584c0.16168,-0.84731 0.32598,-2.18479 0.37884,-3.12116c0.02701,-0.47855 0.05048,-1.45348 0.05582,-2.44417c0.00537,-0.99865 0.00134,-1.99734 0.00134,-2.49417c0,-0.98367 0.00003,-1.94734 0,-2.41917c-0.00009,-1.36367 0.00641,-2.22396 -0.02084,-3.04366c-0.02594,-0.78041 -0.10041,-1.88473 -0.33634,-2.8755c-0.21292,-0.89414 -0.59015,-1.86832 -1.06415,-2.5155c-0.35571,-0.48566 -1.11535,-1.19964 -1.83999,-1.90134c-0.51966,-0.50321 -1.01724,-1.0325 -2.05734,-1.78c-0.46131,-0.33153 -1.24302,-0.72954 -2.18134,-1.136c-0.75189,-0.3257 -1.60287,-0.66303 -2.53201,-0.972c-0.47895,-0.15927 -1.96579,-0.54111 -2.46848,-0.61833c-1.00931,-0.15508 -1.53097,-0.18454 -2.60751,-0.22167c-0.5633,-0.01942 -2.392,-0.02133 -3.05634,-0.02133c-0.69034,0 -1.40265,0 -2.13299,0c-0.74433,0 -1.49866,0 -2.25901,0c-0.76232,0 -2.277,0 -3.022,0c-1.45999,0 -2.17499,0 -2.88,0c-0.69498,0 -1.38001,0 -2.055,0c-1.96515,0 -2.60131,0 -3.22949,0c-0.62118,0 -1.84649,0 -2.45267,0c-0.60318,0 -2.40383,0 -2.99917,0c-0.58734,0 -1.72199,0 -2.26132,0c-1.00269,0 -2.258,0 -3.20002,0c-0.72598,0 -1.76046,-0.10376 -2.54399,0.07201c-1.04077,0.23349 -1.57835,0.82983 -2.25717,1.22265c-0.92561,0.53565 -1.77988,0.60218 -2.59016,0.81067c-1.05072,0.27037 -1.69098,0.78435 -2.34816,1.18933c-0.96883,0.59703 -1.86492,0.59905 -2.58301,1.14818c-0.60744,0.46451 -1.04839,1.37172 -1.5215,2.07799c-0.53096,0.79262 -0.82741,1.47867 -1.064,2.26451c-0.31193,1.0361 -0.37782,1.9836 -0.48867,2.61015c-0.17986,1.01662 -0.57598,1.83319 -0.94733,2.77118c-0.31065,0.78467 -0.52081,1.34407 -0.71466,2.23467c-0.25884,1.18914 -0.22958,1.81564 -0.39517,2.75583c-0.17934,1.01828 -0.45261,1.72897 -0.74083,2.46817c-0.29305,0.75155 -0.6474,1.47265 -0.90634,2.55299c-0.23073,0.96262 -0.2385,1.85997 -0.243,2.90018c-0.00296,0.6855 0,1.52015 0,2.526c0,0.85264 0,1.81682 0,2.62083c0,0.82199 0,1.85315 0,2.75382c0,1.02084 -0.10449,1.83148 0.08533,2.53552c0.27548,1.02176 1.01698,1.58304 1.61467,2.18533c0.692,0.69733 0.93452,1.62708 1.63333,2.13333c0.57287,0.41501 1.64326,0.39212 2.328,0.77732c0.87865,0.49426 1.59,0.81234 2.3905,1.03216c1.01563,0.2789 1.90635,0.34674 2.92701,0.35718c0.68246,0.00696 1.79234,0.01355 2.56283,-0.02084c0.56792,-0.02536 1.7612,-0.18769 2.64766,-0.40448c0.57677,-0.14106 1.64261,-0.41754 2.57468,-0.54935c0.83349,-0.11786 1.82422,-0.3971 2.57882,-0.67267c0.89649,-0.32739 1.56904,-0.48416 2.31434,-1.0625c0.57647,-0.44736 1.53036,-1.28879 2.14282,-1.65417c0.58868,-0.35123 1.63437,-0.77979 2.36401,-1.27198c0.70813,-0.47766 1.18512,-1.19894 1.63468,-1.88c0.5823,-0.8822 1.05358,-1.4299 1.49682,-2.48935c0.30527,-0.72968 0.60169,-1.65219 0.68366,-2.453c0.09701,-0.9476 0.02084,-1.86316 0.02084,-2.56249c0,-0.97917 0,-1.95834 0,-2.8125c0,-0.86217 0.01849,-1.86011 -0.44351,-2.488c-0.56131,-0.76287 -1.10745,-1.08655 -2.05649,-1.512c-0.73877,-0.33119 -1.62769,-0.5478 -2.604,-0.79201c-0.52298,-0.13081 -1.07294,-0.24954 -2.83866,-0.69583c-0.62616,-0.15826 -1.26199,-0.32957 -1.90802,-0.4935c-1.29733,-0.32919 -1.94208,-0.48446 -2.58133,-0.61599c-1.2312,-0.25335 -2.3925,-0.40737 -2.94015,-0.45501c-1.02239,-0.08892 -1.94731,-0.10809 -2.36917,-0.11166c-1.40129,-0.01186 -2.17534,-0.00267 -3.23751,-0.00267l-0.83099,0" id="svg_4" stroke-width="5" stroke="#e01414" fill="none"/>
 </g>
</svg>