<?xml version="1.0" standalone="no"?><!DOCTYPE svg PUBLIC "-//W3C//DTD SVG 1.1//EN" "http://www.w3.org/Graphics/SVG/1.1/DTD/svg11.dtd"><svg t="1572967028423" class="icon" viewBox="0 0 1024 1024" version="1.1" xmlns="http://www.w3.org/2000/svg" p-id="1357" xmlns:xlink="http://www.w3.org/1999/xlink" width="200" height="200"><defs><style type="text/css"></style></defs><path d="M189.4 899c-33.4 0-60.7-27.2-60.7-60.7v-650c0-33.4 27.2-60.7 60.7-60.7h650c33.4 0 60.7 27.2 60.7 60.7v650c0 33.4-27.2 60.7-60.7 60.7h-650z" fill="#E5F1F9" p-id="1358"></path><path d="M839.5 141.1c26.1 0 47.2 21.1 47.2 47.2v650c0 26.1-21.1 47.2-47.2 47.2h-650c-26.1 0-47.2-21.1-47.2-47.2v-650c0-26.1 21.1-47.2 47.2-47.2h650m0-26.9h-650c-40.9 0-74.1 33.2-74.1 74.1v650c0 40.9 33.2 74.1 74.1 74.1h650c40.9 0 74.1-33.2 74.1-74.1v-650c0-40.8-33.3-74.1-74.1-74.1z" fill="#283163" p-id="1359"></path><path d="M865.4 148.9c4.9 7.4 7.8 16.4 7.8 25.9v650c0 26.1-21.1 47.2-47.2 47.2H176c-9.6 0-18.5-2.9-25.9-7.8 8.4 12.8 22.9 21.3 39.4 21.3h650c26.1 0 47.2-21.1 47.2-47.2v-650c0-16.4-8.5-30.9-21.3-39.4z" fill="#FFFFFF" p-id="1360"></path><path d="M171.8 862.7v-650c0-26.1 21.1-47.2 47.2-47.2h650c4.4 0 8.6 0.6 12.6 1.7-7.7-15.5-23.7-26.1-42.2-26.1h-650c-26.1 0-47.2 21.1-47.2 47.2v650c0 21.4 14.3 39.5 33.9 45.3-0.1-0.6-0.1-1.1-0.1-1.7-2.6-5.9-4.2-12.3-4.2-19.2z" fill="#AAD4E9" p-id="1361"></path><path d="M367.2 449.6c-7.4 0-13.5-6-13.5-13.5V206.2c0-7.4 6-13.5 13.5-13.5h294.5c7.4 0 13.5 6 13.5 13.5v229.9c0 7.4-6 13.5-13.5 13.5H367.2z" fill="#FFFFFF" p-id="1362"></path><path d="M661.7 206.2v229.9H367.2V206.2h294.5m0-26.9H367.2c-14.9 0-26.9 12.1-26.9 26.9v229.9c0 14.9 12.1 26.9 26.9 26.9h294.5c14.9 0 26.9-12.1 26.9-26.9V206.2c0-14.8-12-26.9-26.9-26.9z" fill="#283163" p-id="1363"></path><path d="M367.2 830.8c-7.4 0-13.5-6-13.5-13.5V587.5c0-7.4 6-13.5 13.5-13.5h294.5c7.4 0 13.5 6 13.5 13.5v229.9c0 7.4-6 13.5-13.5 13.5H367.2z" fill="#FFFFFF" p-id="1364"></path><path d="M661.7 587.5v229.9H367.2V587.5h294.5m0-27H367.2c-14.9 0-26.9 12.1-26.9 26.9v229.9c0 14.9 12.1 26.9 26.9 26.9h294.5c14.9 0 26.9-12.1 26.9-26.9V587.5c0-14.9-12-27-26.9-27z" fill="#283163" p-id="1365"></path><path d="M233 758c-7.1 0-12.8-5.7-12.8-12.8v-22.4h-22.4c-7.1 0-12.8-5.7-12.8-12.8v-36c0-7.1 5.7-12.8 12.8-12.8h22.4v-22.4c0-7.1 5.7-12.8 12.8-12.8h36.1c7.1 0 12.8 5.7 12.8 12.8v22.4h22.4c7.1 0 12.8 5.7 12.8 12.8v36.1c0 7.1-5.7 12.8-12.8 12.8h-22.4v22.4c0 7.1-5.7 12.8-12.8 12.8H233z" fill="#FFDBA0" p-id="1366"></path><path d="M269.1 638.9V674h35.1v36.1h-35.1v35.1H233v-35.1h-35.1V674H233v-35.1h36.1m0-25.5H233c-14.1 0-25.5 11.4-25.5 25.5v9.6h-9.6c-14.1 0-25.5 11.4-25.5 25.5v36.1c0 14.1 11.4 25.5 25.5 25.5h9.6v9.6c0 14.1 11.4 25.5 25.5 25.5h36.1c14.1 0 25.5-11.4 25.5-25.5v-9.6h9.6c14.1 0 25.5-11.4 25.5-25.5V674c0-14.1-11.4-25.5-25.5-25.5h-9.6v-9.6c0-14.1-11.4-25.5-25.5-25.5z" fill="#283163" p-id="1367"></path><path d="M762.1 760.2c-7.4 0-13.5-6-13.5-13.5V725H727c-7.4 0-13.5-6-13.5-13.5v-36.1c0-7.4 6-13.5 13.5-13.5h21.7v-21.7c0-7.4 6-13.5 13.5-13.5h36.1c7.4 0 13.5 6 13.5 13.5V662h21.7c7.4 0 13.5 6 13.5 13.5v36.1c0 7.4-6 13.5-13.5 13.5h-21.7v21.7c0 7.4-6 13.5-13.5 13.5h-36.2z" fill="#1E62A1" p-id="1368"></path><path d="M798.2 640.3v35.1h35.1v36.1h-35.1v35.1h-36.1v-35.1H727v-36.1h35.1v-35.1h36.1m0-26.9h-36.1c-14.9 0-26.9 12.1-26.9 26.9v8.2H727c-14.9 0-26.9 12.1-26.9 26.9v36.1c0 14.9 12.1 26.9 26.9 26.9h8.2v8.2c0 14.9 12.1 26.9 26.9 26.9h36.1c14.9 0 26.9-12.1 26.9-26.9v-8.2h8.2c14.9 0 26.9-12.1 26.9-26.9v-36.1c0-14.9-12.1-26.9-26.9-26.9h-8.2v-8.2c0-14.8-12-26.9-26.9-26.9z" fill="#283163" p-id="1369"></path><path d="M733.6 299.3m-13.2 0a13.2 13.2 0 1 0 26.4 0 13.2 13.2 0 1 0-26.4 0Z" fill="#283163" p-id="1370"></path><path d="M780.2 299.3m-13.2 0a13.2 13.2 0 1 0 26.4 0 13.2 13.2 0 1 0-26.4 0Z" fill="#283163" p-id="1371"></path><path d="M826.7 299.3m-13.2 0a13.2 13.2 0 1 0 26.4 0 13.2 13.2 0 1 0-26.4 0Z" fill="#283163" p-id="1372"></path><path d="M733.6 345.4m-13.2 0a13.2 13.2 0 1 0 26.4 0 13.2 13.2 0 1 0-26.4 0Z" fill="#283163" p-id="1373"></path><path d="M780.2 345.4m-13.2 0a13.2 13.2 0 1 0 26.4 0 13.2 13.2 0 1 0-26.4 0Z" fill="#283163" p-id="1374"></path><path d="M826.7 345.4m-13.2 0a13.2 13.2 0 1 0 26.4 0 13.2 13.2 0 1 0-26.4 0Z" fill="#283163" p-id="1375"></path><path d="M204.5 299.3m-13.2 0a13.2 13.2 0 1 0 26.4 0 13.2 13.2 0 1 0-26.4 0Z" fill="#283163" p-id="1376"></path><path d="M251 299.3m-13.2 0a13.2 13.2 0 1 0 26.4 0 13.2 13.2 0 1 0-26.4 0Z" fill="#283163" p-id="1377"></path><path d="M297.5 299.3m-13.2 0a13.2 13.2 0 1 0 26.4 0 13.2 13.2 0 1 0-26.4 0Z" fill="#283163" p-id="1378"></path><path d="M204.5 345.4m-13.2 0a13.2 13.2 0 1 0 26.4 0 13.2 13.2 0 1 0-26.4 0Z" fill="#283163" p-id="1379"></path><path d="M251 345.4m-13.2 0a13.2 13.2 0 1 0 26.4 0 13.2 13.2 0 1 0-26.4 0Z" fill="#283163" p-id="1380"></path><path d="M297.5 345.4m-13.2 0a13.2 13.2 0 1 0 26.4 0 13.2 13.2 0 1 0-26.4 0Z" fill="#283163" p-id="1381"></path><path d="M135.5 499.9h759v26.9h-759z" fill="#283163" p-id="1382"></path><path d="M472.6 697.5c-4.6 0-8.4-3.8-8.4-8.4 0-7.7-5.6-14.7-13.3-15.5-8.7-0.8-16.2 6.1-16.2 14.7v0.8c0 4.6-3.8 8.4-8.4 8.4-7.7 0-14.7 5.6-15.5 13.3-0.8 8.7 6.1 16.2 14.7 16.2h0.8c4.6 0 8.4 3.8 8.4 8.4 0 7.7 5.6 14.7 13.3 15.5 8.7 0.8 16.2-6.1 16.2-14.7v-0.8c0-4.6 3.8-8.4 8.4-8.4h0.8c8.6 0 15.5-7.4 14.7-16.2-0.8-7.6-7.8-13.3-15.5-13.3z" fill="#9AD6E8" p-id="1383"></path><path d="M587 300.5c-4.6 0-8.4-3.8-8.4-8.4 0-7.7-5.6-14.7-13.3-15.5-8.7-0.8-16.2 6.1-16.2 14.7v0.8c0 4.6-3.8 8.4-8.4 8.4-7.7 0-14.7 5.6-15.5 13.3-0.8 8.7 6.1 16.2 14.7 16.2h0.8c4.6 0 8.4 3.8 8.4 8.4 0 7.7 5.6 14.7 13.3 15.5 8.7 0.8 16.2-6.1 16.2-14.7v-0.8c0-4.6 3.8-8.4 8.4-8.4h0.8c8.6 0 15.5-7.4 14.7-16.2-0.8-7.7-7.8-13.3-15.5-13.3z" fill="#9AD6E8" p-id="1384"></path></svg>